<?xml version="1.0" standalone="no"?>
<!DOCTYPE svg PUBLIC "-//W3C//DTD SVG 20010904//EN"
 "http://www.w3.org/TR/2001/REC-SVG-20010904/DTD/svg10.dtd">
<svg version="1.0" xmlns="http://www.w3.org/2000/svg"
 width="16.000000pt" height="16.000000pt" viewBox="0 0 16.000000 16.000000"
 preserveAspectRatio="xMidYMid meet">
<metadata>
Created by potrace 1.11, written by Peter Selinger 2001-2013
</metadata>
<g transform="translate(0.000000,16.000000) scale(0.001966,-0.001966)"
fill="#000000" stroke="none">
<path d="M0 4070 l0 -4070 4070 0 4070 0 0 4070 0 4070 -4070 0 -4070 0 0
-4070z m3769 2055 c46 -42 45 -38 -3 33 -53 78 -20 54 40 -28 43 -61 74 -92
126 -126 38 -25 87 -63 109 -85 l40 -40 37 28 c20 15 39 30 42 33 3 3 29 23
57 44 39 28 58 36 74 31 18 -6 21 -4 16 9 -8 20 6 20 44 0 30 -15 31 -15 24 5
-7 23 5 27 36 11 15 -8 19 -7 19 4 0 23 22 31 35 13 17 -23 22 -21 29 8 4 14
14 25 22 25 14 0 15 -7 11 -37 l-7 -38 26 43 c14 23 30 42 36 42 11 0 7 -36
-8 -75 -7 -18 -6 -18 9 -6 15 11 17 11 17 -2 0 -27 -50 -76 -120 -117 -73 -43
-118 -88 -150 -150 l-20 -40 39 -25 c31 -19 43 -35 51 -66 14 -51 1 -72 -28
-46 -25 23 -75 21 -147 -4 -50 -18 -75 -20 -145 -16 -81 5 -86 4 -95 -16 -14
-31 -61 -52 -81 -36 -11 9 -12 14 -3 19 6 4 8 16 5 28 -9 28 -74 43 -113 27
-36 -15 -58 -5 -49 23 8 24 53 42 105 42 59 1 86 39 44 63 -8 5 -11 16 -8 26
3 11 -10 29 -41 56 -26 22 -72 66 -104 98 -31 31 -62 57 -68 57 -7 0 -12 4
-12 8 0 5 -23 31 -50 58 -28 27 -48 54 -46 61 3 6 0 14 -7 17 -7 2 2 5 18 6
l30 2 -35 13 c-49 19 -8 19 53 1 26 -8 47 -12 47 -10 0 2 -27 18 -61 35 -34
16 -59 32 -57 35 6 5 74 -18 117 -40 49 -26 37 -13 -34 34 -35 25 -62 46 -60
48 2 2 46 -22 97 -53 l93 -56 -67 68 c-77 78 -93 110 -20 43 26 -25 67 -63 91
-85z m-1225 -917 c6 -9 76 -194 76 -201 0 -16 -41 -6 -52 13 -10 15 -24 20
-55 20 -32 0 -45 -5 -53 -20 -10 -19 -50 -29 -50 -12 0 4 18 52 40 108 38 93
43 101 66 98 14 -1 27 -4 28 -6z m242 -52 l31 -58 33 59 c25 45 38 60 54 59
20 -1 21 -6 21 -106 0 -101 -1 -105 -22 -108 -22 -3 -23 0 -23 60 l0 63 -32
-54 -31 -54 -23 46 c-13 25 -27 48 -32 51 -4 2 -8 -21 -7 -52 0 -52 -2 -57
-22 -60 -23 -3 -23 -2 -23 106 0 107 0 109 23 108 16 -1 30 -16 53 -60z m402
36 c3 -21 -1 -22 -58 -22 -53 0 -61 -2 -58 -17 2 -14 15 -19 56 -21 44 -3 52
-6 52 -23 0 -16 -7 -19 -55 -19 -48 0 -55 -3 -55 -20 0 -16 8 -19 58 -22 49
-3 57 -6 57 -23 0 -18 -8 -20 -77 -23 l-78 -3 0 108 0 108 78 -1 c71 -1 77 -2
80 -22z m244 -2 c24 -29 23 -73 -2 -95 -20 -18 -20 -18 0 -50 25 -40 25 -45 1
-45 -11 0 -32 16 -47 35 -33 44 -52 45 -56 3 -2 -25 -8 -34 -25 -36 -23 -3
-23 -2 -23 101 0 75 4 107 13 110 6 2 37 3 67 1 42 -2 58 -7 72 -24z m158 -81
c0 -109 0 -110 -22 -107 -22 3 -23 8 -26 102 -2 73 1 102 10 108 34 21 38 10
38 -103z m250 96 c17 -9 30 -19 30 -24 0 -16 -29 -21 -57 -10 -22 8 -32 6 -52
-9 -58 -43 -12 -137 54 -112 22 9 32 8 43 -4 13 -12 11 -16 -16 -30 -39 -20
-65 -20 -102 -1 -32 17 -60 61 -60 95 0 33 28 78 58 94 35 20 66 20 102 1z
m280 -96 c21 -52 36 -97 33 -101 -9 -16 -42 -7 -48 12 -5 16 -15 20 -50 20
-34 0 -47 -5 -55 -20 -12 -22 -50 -27 -50 -7 0 21 71 191 83 199 27 17 51 -11
87 -103z m169 101 c5 0 28 -28 52 -62 l44 -63 3 68 c3 64 4 68 25 65 21 -3 22
-9 25 -102 1 -55 -1 -103 -7 -109 -18 -18 -49 4 -92 66 l-44 62 -3 -67 c-3
-60 -5 -68 -22 -68 -19 0 -20 8 -20 111 0 97 2 110 16 105 9 -3 19 -6 23 -6z
m466 -47 c17 -29 33 -52 36 -53 3 0 18 22 32 49 26 48 63 72 73 47 3 -7 3 -55
2 -107 -3 -86 -5 -94 -23 -94 -17 0 -21 8 -25 59 l-5 60 -24 -52 c-28 -59 -37
-57 -67 10 l-19 43 -5 -60 c-4 -52 -8 -60 -25 -60 -18 0 -20 8 -23 94 -1 52 0
101 3 108 10 27 40 8 70 -44z m407 -54 c21 -52 38 -97 38 -101 0 -5 -11 -8
-24 -8 -16 0 -27 7 -31 20 -5 16 -15 20 -50 20 -34 0 -47 -5 -55 -20 -11 -20
-50 -28 -50 -10 0 18 73 195 83 202 27 17 52 -12 89 -103z m278 82 c30 -22 47
-81 34 -118 -14 -41 -54 -64 -122 -70 l-62 -6 0 110 0 109 63 -4 c39 -2 71
-10 87 -21z m290 2 c0 -21 -4 -23 -55 -23 -48 0 -55 -2 -55 -20 0 -17 7 -20
50 -20 43 0 50 -3 50 -20 0 -17 -7 -20 -50 -20 -43 0 -50 -3 -50 -20 0 -18 7
-20 55 -20 52 0 55 -1 55 -25 0 -26 0 -26 -77 -23 l-78 3 -3 99 c-2 57 1 102
7 105 5 3 41 6 80 7 68 1 71 0 71 -23z m-4259 -484 c54 -17 103 -61 133 -121
32 -63 32 -90 5 -165 -30 -78 -137 -185 -234 -232 -76 -38 -190 -71 -241 -71
-54 0 -64 -19 -64 -124 0 -75 4 -100 23 -136 34 -68 65 -85 150 -85 82 1 126
19 194 81 40 37 44 45 64 139 46 219 142 451 233 567 81 103 187 143 255 96
19 -12 44 -36 55 -51 42 -57 17 -161 -68 -286 -20 -29 -36 -55 -36 -57 0 -2
15 -4 34 -4 43 0 90 -38 105 -83 12 -36 4 -73 -48 -217 -17 -47 -31 -100 -31
-117 0 -30 3 -33 30 -33 54 0 149 121 206 261 l25 61 -21 42 c-25 53 -25 92 0
133 43 71 106 79 156 20 23 -28 25 -36 19 -85 l-7 -55 54 6 c29 4 65 10 80 13
22 5 34 0 59 -25 40 -40 37 -66 -22 -193 -23 -50 -44 -110 -47 -134 -5 -43 -4
-44 26 -44 38 0 98 53 107 96 33 147 99 330 126 347 41 26 159 -43 159 -93 0
-10 -16 -69 -36 -132 -19 -62 -36 -135 -37 -163 -2 -47 0 -50 24 -53 37 -4 89
41 89 78 0 39 41 85 93 105 37 14 51 28 95 99 68 108 118 165 158 182 37 15
58 11 92 -19 26 -24 28 -56 6 -98 -18 -36 -13 -85 19 -169 12 -30 21 -79 21
-107 0 -29 4 -53 8 -53 5 0 24 15 43 33 29 27 37 44 50 110 9 44 26 114 39
157 22 75 22 79 4 83 -38 10 -4 97 38 97 8 0 22 17 30 38 49 121 73 161 98
168 33 8 76 -10 109 -44 35 -38 37 -51 16 -107 -11 -27 -19 -51 -19 -52 0 -1
19 -3 43 -5 35 -3 43 -7 45 -26 6 -39 -34 -72 -84 -72 l-43 0 -35 -107 c-35
-112 -60 -241 -50 -266 10 -27 48 -36 83 -20 51 25 77 65 90 135 31 180 153
298 316 306 59 3 77 0 115 -21 25 -13 59 -43 75 -66 28 -40 30 -49 30 -134 0
-79 -4 -100 -27 -149 -15 -32 -24 -58 -19 -58 4 0 28 13 53 29 32 20 49 39 56
63 6 18 27 90 48 160 20 70 45 136 56 148 27 28 62 25 102 -10 l34 -31 67 37
c58 32 72 36 120 32 67 -6 114 -39 145 -104 31 -64 25 -157 -18 -248 -33 -71
-28 -80 25 -43 38 26 41 32 81 199 53 216 143 417 236 525 41 47 125 93 171
93 37 0 89 -32 119 -73 42 -57 17 -161 -68 -286 -20 -29 -36 -55 -36 -57 0 -2
15 -4 34 -4 43 0 90 -38 105 -83 12 -36 4 -73 -48 -217 -17 -47 -31 -100 -31
-117 0 -30 3 -33 30 -33 22 0 41 11 69 40 32 33 39 48 44 95 12 116 98 240
203 291 45 22 64 26 110 22 61 -5 96 -26 132 -79 20 -29 23 -44 20 -95 -7
-113 -87 -194 -199 -202 -67 -5 -74 -18 -34 -57 43 -44 144 -28 209 33 40 38
98 129 131 206 l27 65 -22 55 c-21 49 -22 60 -12 95 14 45 63 91 97 91 14 0
41 -14 61 -32 36 -32 36 -33 30 -91 l-6 -60 58 8 c98 13 123 11 144 -14 28
-35 22 -75 -28 -184 -71 -155 -62 -229 19 -158 40 35 53 38 79 14 27 -24 22
-48 -19 -94 -88 -97 -203 -112 -288 -38 -69 61 -70 147 -3 291 26 58 29 71 17
79 -25 16 -35 10 -48 -28 -25 -73 -116 -227 -162 -274 -128 -131 -333 -154
-453 -49 l-36 32 -42 -36 c-105 -90 -246 -79 -315 23 -35 51 -31 118 13 241
20 55 34 103 31 107 -12 11 -56 -7 -84 -35 -57 -58 -97 -174 -106 -306 -3 -52
-9 -73 -23 -83 -23 -17 -29 -16 -92 2 -47 14 -61 26 -87 73 -1 1 -19 -5 -39
-13 -21 -9 -61 -17 -89 -19 -29 -2 -72 -13 -97 -24 -87 -39 -163 -37 -213 6
-15 14 -20 14 -27 2 -11 -17 -47 -212 -56 -300 -4 -36 -11 -71 -17 -77 -27
-35 -140 7 -161 59 -15 36 -5 130 28 271 9 38 16 72 16 76 0 5 -24 2 -52 -6
-29 -8 -66 -11 -82 -8 -19 3 -40 -2 -61 -15 -91 -56 -218 -44 -295 29 l-40 38
-22 -25 c-91 -97 -228 -102 -324 -10 l-31 29 -49 -31 c-71 -45 -165 -71 -259
-73 -90 -1 -145 18 -207 71 l-35 32 -19 -21 c-26 -29 -92 -66 -132 -74 -48
-10 -129 13 -167 47 l-34 29 -41 -30 c-91 -66 -208 -60 -280 14 -33 35 -35 39
-35 108 0 63 5 83 40 155 32 69 36 85 24 93 -26 16 -34 9 -68 -66 -51 -114
-125 -228 -182 -279 -112 -101 -253 -95 -326 13 -35 51 -31 118 13 241 20 55
34 103 31 107 -12 11 -56 -7 -84 -35 -57 -58 -97 -174 -106 -306 -5 -69 -20
-96 -52 -96 -32 0 -116 33 -129 51 -14 21 -14 21 -54 -5 -156 -98 -364 -85
-491 30 -24 21 -55 61 -69 88 -25 48 -27 60 -27 177 l0 127 -62 27 c-73 32
-144 91 -167 139 -50 106 30 248 181 323 66 32 130 36 147 10 9 -15 3 -25 -42
-68 -30 -28 -60 -65 -68 -84 -28 -69 -11 -165 37 -198 22 -16 23 -16 50 33 99
181 259 332 404 382 59 21 94 22 146 7z m1556 -134 c55 -39 49 -141 -12 -202
-43 -43 -102 -46 -140 -8 -29 29 -34 98 -10 144 36 70 112 101 162 66z m357
-1010 c47 -8 112 -24 144 -35 l57 -20 49 25 c55 28 139 34 168 11 29 -21 38
-58 23 -93 -16 -38 -63 -65 -125 -72 -40 -5 -47 -10 -69 -50 -18 -33 -25 -63
-29 -130 l-5 -88 81 5 c76 4 82 3 106 -21 38 -38 33 -64 -23 -118 -69 -66
-141 -76 -141 -19 0 31 -29 33 -36 2 -40 -182 -80 -268 -160 -341 -129 -118
-326 -118 -475 0 -54 42 -99 122 -99 175 0 79 95 166 212 195 41 9 52 9 73 -5
14 -9 25 -22 25 -29 0 -7 -24 -38 -54 -69 -56 -58 -72 -97 -61 -147 17 -78
117 -103 189 -47 51 39 92 105 121 199 14 43 25 80 25 82 0 2 -15 1 -34 -2
-85 -14 -156 27 -156 89 0 66 73 138 143 142 34 1 36 -5 26 -74 -3 -21 1 -26
21 -28 25 -3 26 0 38 80 8 46 25 110 38 143 42 98 44 91 -28 104 -213 37 -307
-35 -207 -158 75 -94 -27 -122 -152 -42 -116 73 -117 230 -3 297 50 29 132 52
195 53 20 1 75 -6 123 -14z m3149 -146 c24 -30 23 -114 -3 -156 -74 -121 -226
-65 -189 71 11 40 53 94 83 107 32 13 89 2 109 -22z m-1348 -203 c51 -22 68
-55 60 -117 l-7 -52 63 7 c95 11 110 10 133 -13 32 -33 26 -83 -23 -186 -47
-101 -64 -181 -38 -191 22 -8 72 21 100 58 13 18 33 69 45 113 11 44 35 120
52 168 43 116 76 132 150 71 l30 -25 66 32 c118 59 205 47 254 -33 28 -46 25
-80 -15 -208 -52 -166 -45 -206 30 -160 49 30 61 51 89 160 37 145 84 260 111
272 35 16 74 1 118 -42 45 -45 45 -42 -5 -199 -38 -121 -47 -195 -24 -204 21
-8 63 13 95 47 17 18 27 44 33 88 17 127 91 233 201 288 87 43 160 39 215 -13
37 -34 55 -77 53 -129 -2 -115 -99 -207 -222 -212 -46 -1 -50 -16 -13 -53 23
-23 32 -25 83 -21 95 7 162 68 237 218 41 83 45 114 20 178 -45 117 72 219
155 135 32 -32 38 -56 25 -110 -8 -33 -7 -33 31 -33 21 0 53 4 71 9 21 6 43 6
62 -1 63 -21 65 -74 10 -193 -54 -115 -68 -172 -48 -191 13 -13 20 -11 57 20
50 42 51 42 81 18 31 -25 22 -60 -28 -108 -87 -86 -197 -96 -277 -26 -66 57
-69 148 -9 272 39 82 41 96 15 103 -16 4 -29 -16 -82 -121 -100 -201 -196
-282 -358 -299 -77 -7 -154 16 -209 63 l-43 37 -32 -31 c-39 -37 -111 -72
-152 -72 -50 0 -104 19 -139 51 l-34 29 -51 -34 c-61 -41 -125 -54 -184 -36
-128 38 -155 122 -97 303 46 143 37 169 -34 106 -67 -59 -125 -219 -126 -346
0 -43 -4 -54 -21 -64 -31 -16 -104 -2 -139 27 l-29 25 -48 -28 c-91 -53 -217
-31 -271 48 -36 52 -28 139 22 247 22 45 37 84 35 86 -2 2 -13 6 -24 10 -17 5
-26 -7 -60 -81 -70 -153 -151 -262 -230 -309 -84 -49 -188 -41 -249 21 -30 30
-36 32 -47 19 -20 -25 -91 -62 -131 -69 -50 -9 -102 10 -144 52 l-35 35 -45
-17 c-25 -9 -73 -19 -107 -22 -34 -3 -80 -13 -102 -24 -127 -58 -266 -14 -327
104 -43 85 -7 248 77 344 111 127 294 150 391 49 72 -75 82 -187 28 -305 -13
-30 -22 -56 -20 -59 3 -2 25 7 50 22 37 22 47 34 56 69 28 112 93 300 111 318
10 10 30 19 43 19 28 0 82 -35 109 -72 l21 -28 -43 -127 c-23 -71 -45 -152
-48 -180 -5 -47 -4 -53 13 -53 10 0 35 17 56 37 35 34 45 57 94 211 31 95 64
182 75 193 32 32 76 22 132 -29 36 -34 35 -74 -3 -188 -38 -111 -50 -211 -27
-220 46 -17 162 121 222 265 l27 64 -21 38 c-37 64 -20 146 37 181 33 21 35
21 77 4z m-2860 -1130 c35 -15 65 -59 65 -96 0 -29 -26 -76 -52 -94 -12 -9
-40 -16 -61 -16 -51 0 -107 52 -107 99 0 46 26 90 63 106 41 18 50 18 92 1z
m2561 -1 c52 -21 39 -41 -24 -37 -43 3 -52 0 -66 -20 -22 -30 -20 -60 4 -86
23 -24 41 -27 71 -11 15 8 24 7 36 -2 13 -12 13 -15 -7 -31 -58 -47 -170 10
-170 87 0 33 32 84 63 99 40 19 49 20 93 1z m296 -22 c92 -88 -22 -232 -132
-166 -33 19 -50 52 -50 96 0 92 114 136 182 70z m-3112 7 c48 -48 6 -120 -71
-120 -38 0 -39 -1 -39 -35 0 -28 -4 -35 -20 -35 -19 0 -20 7 -20 105 l0 105
65 0 c52 0 69 -4 85 -20z m457 -40 c9 -33 20 -57 23 -53 4 4 15 32 25 61 15
48 20 53 43 50 22 -3 29 -12 47 -67 l21 -64 18 66 c16 60 21 67 43 67 18 0 23
-4 19 -17 -52 -180 -57 -193 -80 -193 -19 0 -26 11 -46 73 l-23 72 -24 -72
c-21 -62 -28 -73 -47 -73 -20 0 -26 11 -50 92 -16 50 -30 98 -33 105 -3 9 3
13 21 13 23 0 28 -6 43 -60z m493 40 c0 -18 -7 -20 -60 -20 -53 0 -60 -2 -60
-20 0 -18 7 -20 55 -20 48 0 55 -2 55 -20 0 -18 -7 -20 -55 -20 -48 0 -55 -2
-55 -20 0 -11 3 -21 8 -21 4 -1 27 -3 52 -4 25 -1 48 -3 53 -4 4 0 7 -10 7
-21 0 -18 -7 -20 -80 -20 l-80 0 0 105 0 105 80 0 c73 0 80 -2 80 -20z m240 0
c26 -26 25 -68 -1 -96 l-21 -23 21 -29 c26 -38 26 -42 -1 -42 -15 0 -32 13
-47 35 -30 44 -49 45 -53 3 -2 -25 -8 -34 -25 -36 -23 -3 -23 -2 -23 102 l0
106 65 0 c52 0 69 -4 85 -20z m270 0 c0 -18 -7 -20 -55 -20 -48 0 -55 -2 -55
-20 0 -17 7 -20 50 -20 43 0 50 -3 50 -20 0 -17 -7 -20 -51 -20 -46 0 -50 -2
-47 -22 3 -20 8 -22 56 -19 50 2 52 2 52 -24 l0 -26 -77 3 -78 3 -3 103 -3
102 81 0 c73 0 80 -2 80 -20z m247 0 c23 -14 34 -29 39 -56 15 -79 -30 -125
-126 -132 l-60 -4 0 106 0 106 58 0 c39 0 67 -6 89 -20z m437 4 c20 -20 20
-48 0 -65 -14 -11 -14 -14 -1 -24 29 -21 30 -53 3 -80 -22 -22 -34 -25 -91
-25 l-65 0 0 105 0 105 69 0 c50 0 74 -4 85 -16z m166 -14 c21 -52 34 -54 59
-10 16 30 29 40 47 40 13 0 24 -2 24 -5 0 -3 -15 -30 -34 -60 -23 -35 -36 -68
-38 -97 -2 -36 -7 -44 -25 -46 -21 -3 -23 1 -23 38 0 29 -9 56 -33 93 -18 29
-37 58 -41 65 -5 8 1 12 22 12 23 0 32 -6 42 -30z m1090 10 c0 -18 -7 -20 -60
-20 -53 0 -60 -2 -60 -20 0 -18 7 -20 55 -20 48 0 55 -3 55 -19 0 -17 -8 -20
-52 -23 l-53 -3 -3 -42 c-3 -35 -7 -43 -23 -43 -18 0 -19 8 -19 105 l0 105 80
0 c73 0 80 -2 80 -20z m250 0 c0 -18 -7 -20 -60 -20 -53 0 -60 -2 -60 -20 0
-18 7 -20 55 -20 48 0 55 -3 55 -19 0 -17 -8 -20 -52 -23 l-53 -3 -3 -42 c-3
-35 -7 -43 -23 -43 -18 0 -19 8 -19 105 l0 105 80 0 c73 0 80 -2 80 -20z m250
0 c0 -18 -7 -20 -61 -20 -52 0 -60 -2 -57 -17 2 -14 15 -19 56 -21 44 -3 52
-6 52 -23 0 -16 -7 -19 -55 -19 -48 0 -55 -2 -55 -20 0 -15 7 -20 30 -21 17
-1 35 -3 40 -4 6 -1 19 -3 30 -4 13 -1 20 -8 20 -21 0 -18 -7 -20 -80 -20
l-80 0 0 105 0 105 80 0 c73 0 80 -2 80 -20z m250 0 c0 -18 -7 -20 -55 -20
-48 0 -55 -2 -55 -20 0 -17 7 -20 50 -20 43 0 50 -3 50 -20 0 -17 -7 -20 -50
-20 -43 0 -50 -3 -50 -20 0 -21 6 -23 73 -22 32 0 37 -3 37 -24 0 -23 -2 -24
-80 -24 l-80 0 0 105 0 105 80 0 c73 0 80 -2 80 -20z"/>
<path d="M2500 5116 c-13 -36 -14 -36 16 -36 22 0 24 3 19 23 -12 37 -24 42
-35 13z"/>
<path d="M3332 5143 c2 -19 8 -28 21 -27 9 1 24 2 33 3 10 1 14 9 12 24 -2 17
-11 23 -36 25 -31 3 -33 2 -30 -25z"/>
<path d="M4040 5117 c-15 -31 -10 -40 18 -35 19 3 19 6 7 33 l-12 30 -13 -28z"/>
<path d="M5081 5117 c-15 -38 -15 -37 14 -37 28 0 30 5 10 40 l-13 25 -11 -28z"/>
<path d="M5330 5110 l0 -60 34 0 c42 0 66 22 66 59 0 36 -28 61 -68 61 l-32 0
0 -60z"/>
<path d="M1388 4576 c-46 -16 -90 -53 -146 -120 -44 -53 -128 -204 -118 -213
3 -3 27 0 54 6 102 25 210 111 257 205 29 58 33 121 9 130 -9 3 -16 6 -17 6
-1 -1 -19 -7 -39 -14z"/>
<path d="M1926 4520 c-30 -35 -136 -247 -136 -271 0 -20 87 105 132 187 22 41
38 84 36 96 -3 21 -5 20 -32 -12z"/>
<path d="M5606 4520 c-30 -35 -136 -247 -136 -272 0 -20 92 111 134 191 20 39
36 81 34 93 -3 20 -5 20 -32 -12z"/>
<path d="M4214 4118 c-67 -81 -107 -261 -68 -316 21 -30 34 -28 34 6 0 28 38
73 71 85 18 6 36 68 45 155 11 100 -28 133 -82 70z"/>
<path d="M6101 4112 c-41 -43 -78 -122 -57 -122 33 0 100 76 116 130 12 43
-14 40 -59 -8z"/>
<path d="M4854 4103 c-61 -57 -124 -172 -124 -229 0 -36 27 -84 48 -84 12 0
23 13 31 36 7 21 25 43 42 53 19 11 34 31 44 61 53 162 35 232 -41 163z"/>
<path d="M3219 3975 c-41 -64 -48 -81 -44 -101 2 -10 7 -36 10 -56 8 -50 36
-66 64 -37 29 31 33 76 13 159 l-18 75 -25 -40z"/>
<path d="M3998 2983 c-14 -16 -34 -44 -43 -63 -54 -107 -61 -280 -11 -280 8 0
12 7 10 18 -7 25 32 80 61 88 20 5 28 17 40 59 16 55 23 174 11 194 -12 19
-41 12 -68 -16z"/>
<path d="M6802 2994 c-26 -18 -82 -111 -82 -137 0 -14 4 -16 18 -8 43 23 89
83 106 139 9 27 -9 29 -42 6z"/>
<path d="M2237 2032 c-55 -60 26 -149 83 -92 25 25 26 72 2 93 -24 22 -65 21
-85 -1z"/>
<path d="M5060 2034 c-21 -25 -16 -75 9 -96 30 -23 42 -23 75 3 29 23 33 54
10 87 -18 26 -75 30 -94 6z"/>
<path d="M1960 2025 c0 -29 19 -40 56 -31 19 5 25 12 22 29 -2 18 -11 23 -40
25 -35 3 -38 1 -38 -23z"/>
<path d="M3160 2021 c0 -26 4 -31 23 -31 57 1 66 53 9 58 -30 3 -32 1 -32 -27z"/>
<path d="M3670 1990 l0 -60 34 0 c42 0 66 22 66 59 0 36 -28 61 -68 61 l-32 0
0 -60z"/>
<path d="M4110 2029 c0 -17 5 -20 32 -17 22 2 34 9 36 21 3 14 -4 17 -32 17
-30 0 -36 -4 -36 -21z"/>
<path d="M4110 1945 c0 -21 5 -25 28 -25 36 0 56 14 49 34 -4 10 -19 16 -42
16 -31 0 -35 -3 -35 -25z"/>
</g>
</svg>
