<svg id="logo" xmlns="http://www.w3.org/2000/svg" viewBox="0 0 440.51 323.67"><title>logo</title><path d="M125.85,348.27a4.86,4.86,0,0,1,1.53,3.95,4.68,4.68,0,0,1-1.56,3.91,7.67,7.67,0,0,1-4.8,1.24h-2.6v4.3h-2.48V347h5Q124.32,347,125.85,348.27Zm-1.75,6.06a3.24,3.24,0,0,0,.75-2.31,2.39,2.39,0,0,0-.94-2.15,5.45,5.45,0,0,0-3-.63h-2.52v5.88h2.88A3.83,3.83,0,0,0,124.1,354.33Zm20.59,5.31a8,8,0,0,1-11,0,7.71,7.71,0,0,1,0-10.84,8,8,0,0,1,11,0A7.71,7.71,0,0,1,144.69,359.64Zm-1.82-9.19a5.15,5.15,0,0,0-7.37,0,5.48,5.48,0,0,0,0,7.54,5.15,5.15,0,0,0,7.37,0A5.48,5.48,0,0,0,142.87,350.45Zm13.7,7.1L159.85,347h2.23l3.28,10.56L169,347h2.67l-5.12,14.68h-2.46L161,351.61h-0.17l-3.09,10.06h-2.46L150.21,347h2.67ZM186.41,347v2.33h-7.83v3.88h7v2.21h-7v3.93h8.08v2.33H176.1V347h10.31Zm17.24,4.77q0,3.63-3.17,4.58l3.84,5.33h-3.15l-3.51-4.93h-3.25v4.93h-2.48V347h5.46q3.36,0,4.81,1.13A4.33,4.33,0,0,1,203.65,351.76Zm-3.3,2.08a2.62,2.62,0,0,0,.76-2.09,2.24,2.24,0,0,0-.78-2,5.17,5.17,0,0,0-2.77-.54h-3.15v5.25h3.09A4.54,4.54,0,0,0,200.36,353.84ZM219.64,347v2.33H211.8v3.88h7v2.21h-7v3.93h8.08v2.33H209.32V347h10.31Zm16.63,1.92a6.85,6.85,0,0,1,2.12,5.34,7.2,7.2,0,0,1-2.06,5.42q-2.06,2-6.3,2h-4.87V347h5A8.74,8.74,0,0,1,236.27,348.91Zm-0.38,5.41q0-5-5.77-5h-2.48v10.06h2.75a5.92,5.92,0,0,0,4.08-1.27A4.77,4.77,0,0,0,235.89,354.32ZM258,361.67h-6.43V347h5.71a8.26,8.26,0,0,1,2.57.36,3.53,3.53,0,0,1,1.61,1,3.76,3.76,0,0,1,1,2.56,3,3,0,0,1-1.09,2.56,4.8,4.8,0,0,1-.54.37l-0.53.24a3.85,3.85,0,0,1,2.17,1.23,3.42,3.42,0,0,1,.81,2.32,3.94,3.94,0,0,1-1.05,2.71Q261,361.67,258,361.67ZM254,353.08h3.15q2.69,0,2.69-1.83a1.72,1.72,0,0,0-.65-1.51,3.53,3.53,0,0,0-2-.46H254v3.8Zm0,6.3h3.88a4.13,4.13,0,0,0,2.09-.43,1.73,1.73,0,0,0,.72-1.63q0-2-3.13-2H254v4Zm19.82,2.29h-2.52v-5.8L265.86,347h2.71l4,6.68,4-6.68h2.71l-5.46,8.88v5.8Zm24-2.25A5.18,5.18,0,0,0,300,359a7.58,7.58,0,0,0,1.93-1.37l1.6,1.64a7.35,7.35,0,0,1-5.66,2.58,7.59,7.59,0,0,1-5.52-2.14,7.78,7.78,0,0,1,0-10.88,7.76,7.76,0,0,1,5.65-2.18,7.38,7.38,0,0,1,5.7,2.52l-1.58,1.72a6.9,6.9,0,0,0-2-1.41,5.56,5.56,0,0,0-2.19-.4,5.22,5.22,0,0,0-3.74,1.44,4.85,4.85,0,0,0-1.51,3.67,5.07,5.07,0,0,0,1.5,3.74A4.86,4.86,0,0,0,297.82,359.42Zm22.83,0.22a8,8,0,0,1-11,0,7.71,7.71,0,0,1,0-10.84,8,8,0,0,1,11,0A7.71,7.71,0,0,1,320.65,359.64Zm-1.82-9.19a5.15,5.15,0,0,0-7.37,0,5.48,5.48,0,0,0,0,7.54,5.15,5.15,0,0,0,7.37,0A5.48,5.48,0,0,0,318.83,350.45Zm11.75-1.16v4h6.51v2.29h-6.51v6H328.1V347h9.79l0,2.31h-7.29Zm14.78,0v4h6.51v2.29h-6.51v6h-2.48V347h9.79l0,2.31h-7.29ZM368,347v2.33h-7.83v3.88h7v2.21h-7v3.93h8.08v2.33H357.67V347H368Zm15.83,0v2.33H376v3.88h7v2.21h-7v3.93h8.08v2.33H373.5V347h10.31Z" transform="translate(-29.74 -38.16)"/><path d="M120.28,274.91v8.22H100.84v9.06h18.48v8.22H100.84v16.44H91.48V274.91h28.8Zm43.2,36.15a22.85,22.85,0,0,1-31.32,0,21.95,21.95,0,0,1,0-30.9,22.85,22.85,0,0,1,31.32,0A21.95,21.95,0,0,1,163.48,311.06Zm-3.18-15.42a13.73,13.73,0,0,0-3.6-9.57,11.87,11.87,0,0,0-17.7,0,14.48,14.48,0,0,0,0,19.11,11.93,11.93,0,0,0,17.7,0A13.61,13.61,0,0,0,160.3,295.64ZM188.86,306a7.66,7.66,0,0,0,6.3,2.91,7.58,7.58,0,0,0,6.27-2.91q2.31-2.91,2.31-8V274.91h9.36v23.46q0,9.12-5,14a19.46,19.46,0,0,1-25.83,0q-5.07-4.92-5.07-14V274.91h9.36v23.16Q186.52,303.11,188.86,306Zm68-17.19q0,10.08-8,13l10.62,15H248l-9.3-13.38h-6.48v13.38h-9.36V274.91h15.9q9.78,0,14,3.3T256.84,288.83Zm-11.28,5q1.74-1.56,1.74-5t-1.8-4.65q-1.8-1.26-6.3-1.26h-7v12.42H239Q243.82,295.37,245.56,293.81Zm50.22-18.9h9.36v41.94h-9.36l-20-26.28v26.28h-9.36V274.91h8.76l20.58,27v-27Zm19.68,0h9.36v41.94h-9.36V274.91Zm49.92,0v8.34H344.5v8.64h18.78v8H344.5v8.7H366v8.28h-30.9V274.91h30.24Zm43,13.92q0,10.08-8,13l10.62,15H399.52l-9.3-13.38h-6.48v13.38h-9.36V274.91h15.9q9.78,0,14,3.3T408.4,288.83Zm-11.28,5q1.74-1.56,1.74-5t-1.8-4.65q-1.8-1.26-6.3-1.26h-7v12.42h6.84Q395.38,295.37,397.12,293.81ZM51.52,250.6a13.81,13.81,0,0,0,11.28-5.46l6,6.18q-7.14,8-16.83,8t-16-6.12a22.17,22.17,0,0,1,.12-31A21.53,21.53,0,0,1,51.76,216,22.16,22.16,0,0,1,69,223.84l-5.82,6.6a13.64,13.64,0,0,0-11-5.52,12.87,12.87,0,0,0-9,3.45,12,12,0,0,0-3.75,9.3,12.69,12.69,0,0,0,3.54,9.39A11.68,11.68,0,0,0,51.52,250.6Zm50.7-33.66h9.36v41.94h-9.36v-16.5H85.54v16.5H76.18V216.94h9.36v17.52h16.68V216.94Zm53.7,13.92q0,10.08-8,13l10.62,15H147l-9.3-13.38h-6.48v13.38H121.9V216.94h15.9q9.78,0,14,3.3T155.92,230.86Zm-11.28,5q1.74-1.56,1.74-5t-1.8-4.65q-1.8-1.26-6.3-1.26h-7V237.4h6.84Q142.9,237.4,144.64,235.84Zm20.88-18.9h9.36v41.94h-9.36V216.94ZM195,225.31a3.62,3.62,0,0,0-1.35,2.94,3.32,3.32,0,0,0,1.65,2.91q1.65,1.08,7.62,2.55a21.45,21.45,0,0,1,9.27,4.41q3.3,2.94,3.3,8.58a11.32,11.32,0,0,1-4.23,9.15q-4.23,3.51-11.13,3.51-10,0-17.94-7.38l5.58-6.84q6.78,5.94,12.54,5.94a6.58,6.58,0,0,0,4-1.11,3.56,3.56,0,0,0,1.47-3,3.5,3.5,0,0,0-1.56-3,20.4,20.4,0,0,0-6.18-2.25q-7.32-1.74-10.71-4.53T184,228.43a10.86,10.86,0,0,1,4.29-9.21A17.26,17.26,0,0,1,199,216a25.77,25.77,0,0,1,8.4,1.44,22.51,22.51,0,0,1,7.32,4.08L210,228.34a18.47,18.47,0,0,0-11.28-4.14A5.64,5.64,0,0,0,195,225.31Zm45.87-.27v33.84h-9.36V225H219.64v-8.1h33.12V225H240.88Zm52.86,28a22.85,22.85,0,0,1-31.32,0,21.95,21.95,0,0,1,0-30.9,22.85,22.85,0,0,1,31.32,0A21.95,21.95,0,0,1,293.74,253.09Zm-3.18-15.42a13.73,13.73,0,0,0-3.6-9.57,11.87,11.87,0,0,0-17.7,0,14.48,14.48,0,0,0,0,19.11,11.93,11.93,0,0,0,17.7,0A13.61,13.61,0,0,0,290.56,237.67Zm46.35-17q4.41,3.75,4.41,11.52t-4.53,11.37q-4.53,3.6-13.83,3.6h-5.58v11.7H308V216.94h14.82Q332.5,216.94,336.91,220.69ZM330,237.19a8.06,8.06,0,0,0,1.68-5.52q0-3.63-2.19-5.16T322.72,225h-5.34v14.1h6.3Q328.36,239.08,330,237.19Zm44.64-20.25H384v41.94h-9.36v-16.5H358v16.5h-9.36V216.94H358v17.52h16.68V216.94Zm49.92,0v8.34H403.72v8.64H422.5v8H403.72v8.7h21.54v8.28h-30.9V216.94H424.6Zm43,13.92q0,10.08-8,13l10.62,15H458.74l-9.3-13.38H443v13.38H433.6V216.94h15.9q9.78,0,14,3.3T467.62,230.86Zm-11.28,5q1.74-1.56,1.74-5t-1.8-4.65Q454.48,225,450,225h-7V237.4h6.84Q454.6,237.4,456.34,235.84Z" transform="translate(-29.74 -38.16)"/><path d="M141,181.74q0,1.85.07,3.69l-2.5,1.26q-0.28-8.09-.16-16.28l2.68-1.25q6.35,5.16,12.35,10.58l-2.55,1.1-2.78-2.42Q144.49,180,141,181.74Zm5.19-5q-2.56-2.16-5.17-4.28-0.06,3.36,0,6.71Q143.53,178,146.15,176.78Zm13.67,0.34-2.41,1-5.5-13.61q2-.81,4-1.58,4,3.42,7.75,6.95,0.65-5.14,1.49-10.3,2-.69,4-1.34l4.5,14-2.45.81-3.63-10.87q-1,5.72-1.85,11.42l-1.37.5q-4.27-3.86-8.73-7.58Zm26.84-23.86,0.55,2.26q-4.15,1-8.27,2.17l1.05,3.74q3.64-1,7.31-1.93l0.53,2.14q-3.63.9-7.24,1.92l1.06,3.78q4.08-1.15,8.19-2.15l0.55,2.26q-5.32,1.3-10.59,2.84l-4.12-14.09Q181.15,154.6,186.66,153.25ZM206,154.14a4.34,4.34,0,0,1-2.55,5.09q2.47,2.26,4.86,4.57l-3.21.55q-2.22-2.11-4.5-4.18l-3.37.68,1,4.83-2.51.54-3.15-14.34q2.93-.64,5.87-1.22c2.41-.47,4.21-0.4,5.38.16A4.13,4.13,0,0,1,206,154.14Zm-3.12,2.65a2.54,2.54,0,0,0,.43-2.2,2.15,2.15,0,0,0-1.18-1.79,5.89,5.89,0,0,0-3.06,0l-3.36.68,1.07,5.14L200,158A5.19,5.19,0,0,0,202.86,156.8Zm8.48-8.3,2.69-.37,1.9,14.56-2.53.34ZM229,159.09a5.71,5.71,0,0,0,2.26-.59,8.2,8.2,0,0,0,1.93-1.5l1.75,1.55a8,8,0,0,1-5.69,2.94,8.26,8.26,0,0,1-5.88-1.64,7.21,7.21,0,0,1-2.85-5.15,6.94,6.94,0,0,1,1.83-5.68,8.6,8.6,0,0,1,6-2.7,8.14,8.14,0,0,1,6.35,2.14L233,150.26A7.24,7.24,0,0,0,230.8,149a6.32,6.32,0,0,0-2.4-.23,5.78,5.78,0,0,0-3.91,1.76,4.64,4.64,0,0,0-1.27,3.81,5,5,0,0,0,1.92,3.57A5.29,5.29,0,0,0,229,159.09Zm13.41-1.72q-0.74,1.68-1.45,3.37l-2.72.08q3.06-7.46,6.53-14.83h2.89q3.51,7.35,6.62,14.79l-2.72-.07q-0.72-1.68-1.47-3.36Q246.21,157.3,242.38,157.37ZM249,155q-1.38-3-2.83-6.06-1.43,3-2.79,6.07Q246.21,155,249,155Zm22.2-7.89,2.7,0.27L272.34,162l-2.76-.28q-3.76-5.74-7.91-11.35L261,161.09,258.5,161l0.71-14.66,2.7,0.15q4.33,5.75,8.24,11.64Zm18,17.29-2.52-.44,2.45-14.47q2.09,0.35,4.17.74,1.55,5,2.91,10,3.23-4,6.62-8,2.06,0.47,4.11,1l-3.48,14.26-2.5-.6,2.6-11.17q-3.86,4.33-7.51,8.77l-1.41-.29q-1.59-5.52-3.4-11Zm23.45,2q-1.2,1.4-2.38,2.8l-2.65-.71q5.11-6.24,10.6-12.29l2.8,0.84q1.27,8.06,2.12,16.1l-2.62-.87q-0.21-1.82-.45-3.65Q316.38,167.48,312.65,166.43Zm7.09-.28q-0.45-3.31-1-6.62-2.26,2.48-4.46,5Q317,165.3,319.74,166.15Zm23.2,0.82a6.45,6.45,0,0,1,.07,5.83,7.07,7.07,0,0,1-4.12,4.15c-1.85.67-4.13,0.46-6.89-.59q-2.38-.91-4.78-1.76l4.94-13.82q2.63,0.94,5.24,1.94C340.14,163.75,342,165.2,342.94,167Zm-2.44,4.84c1.29-3.1,0-5.49-4-7l-2.55-1-3.49,9.44,2.72,1a6.71,6.71,0,0,0,4.5.4A4.66,4.66,0,0,0,340.5,171.82Zm21.18,1.66-1.06,2.08q-3.89-2-7.82-3.81l-1.64,3.52q3.48,1.62,6.92,3.35l-1,2q-3.41-1.72-6.86-3.32l-1.66,3.56q3.9,1.81,7.75,3.78l-1.06,2.08q-5-2.54-10-4.83l6-13.38Q356.51,170.86,361.68,173.48Z" transform="translate(-29.74 -38.16)"/><path d="M242.24,106.66a4.75,4.75,0,0,0-.58,1.6,6,6,0,0,1-.51,1.6,2.44,2.44,0,0,1-.9.9,14.93,14.93,0,0,1-1.81,1.09,19.72,19.72,0,0,1-2,.9,4.61,4.61,0,0,1-1.43.38,1.35,1.35,0,0,1-.38,0,0.92,0.92,0,0,1-.3-0.23,3.86,3.86,0,0,1-.55-0.47l-0.64-.62q-0.32-.3-0.55-0.55a1.14,1.14,0,0,1-.23-0.28v-0.34a2.51,2.51,0,0,0,.51,0,1.62,1.62,0,0,0,.3-0.09l0.28-.09a1.59,1.59,0,0,1,.38,0,2.42,2.42,0,0,0-.11-0.73,2.55,2.55,0,0,1-.11-0.77s0-.21,0-0.49a0.76,0.76,0,0,0,.23-0.17,1.1,1.1,0,0,0,.23-0.24,1.76,1.76,0,0,0-.19-0.94h-1.13v-2.07a3.81,3.81,0,0,0-1.28.23,3.83,3.83,0,0,1-1.28.23,0.81,0.81,0,0,1-.32-0.06,0.27,0.27,0,0,1-.13-0.28l0-.11a3.59,3.59,0,0,0,.3-0.41,3.38,3.38,0,0,1,.34-0.45l-0.23-.19a0.63,0.63,0,0,1-.19-0.19h-0.11a1.89,1.89,0,0,0-.66.09,2.45,2.45,0,0,0-.47.24,4.54,4.54,0,0,1-.49.28,2.56,2.56,0,0,1-.68.21,1.37,1.37,0,0,1-.58-0.06,4.36,4.36,0,0,1-.64-0.24l-0.62-.3-0.49-.23h-0.23l-0.83.32-1.24.53-1.21.53q-0.56.25-.79,0.32l-1.11.41a3.27,3.27,0,0,1-1.19.23,1.89,1.89,0,0,1-.38,0c-0.13,0-.16-0.15-0.11-0.38h-1.05v-0.94l-0.28,0a2.19,2.19,0,0,1-.4,0,0.81,0.81,0,0,1-.32-0.06,0.31,0.31,0,0,1-.13-0.32l0-.08,1.28-.83a2.81,2.81,0,0,0-.32-0.25,2.57,2.57,0,0,1-.32-0.24h0v0a0.44,0.44,0,0,1,.3-0.45,6,6,0,0,1,.7-0.21c0.26-.06.51-0.13,0.75-0.21a0.59,0.59,0,0,0,.43-0.45h-1.2a1.46,1.46,0,0,1,.15-0.34,1.14,1.14,0,0,1,.6-0.4,8.41,8.41,0,0,1,.88-0.23l0.94-.19a3.1,3.1,0,0,0,.77-0.24,2.48,2.48,0,0,0-.72-0.26,0.82,0.82,0,0,1-.56-0.38l0.19-.23,0.24,0,0.47-.06,0.55-.06a3.7,3.7,0,0,1,.47,0q0.49,0,1.64-.06l2.45-.13,2.47-.15,1.62-.11a7.05,7.05,0,0,0,2-.7q0.87-.47,1.68-1t1.66-.94a6.78,6.78,0,0,1,1.94-.62l0.45-.06a0.9,0.9,0,0,0,.41-0.13l-0.6,0-0.88-.06-0.9-.06-0.58,0a9.7,9.7,0,0,1-1-.23,0.63,0.63,0,0,1-.55-0.64,1,1,0,0,1,.25-0.72,1,1,0,0,0,.24-0.68,0.86,0.86,0,0,0,0-.17,0.86,0.86,0,0,1,0-.17q-0.49-.11-1-0.26a3.14,3.14,0,0,1-.83-0.4,2,2,0,0,1-.58-0.62,1.8,1.8,0,0,1-.23-0.94c0-.08,0-0.19,0-0.34s0-.24,0-0.26a2.81,2.81,0,0,1,.21-0.49l0.36-.73a7.88,7.88,0,0,1,.4-0.73c0.14-.23.23-0.39,0.28-0.49h-2.33a0.17,0.17,0,0,1-.13-0.13,0.57,0.57,0,0,1-.06-0.21,1.22,1.22,0,0,0,0-.19,1.83,1.83,0,0,1,0-.3,2.64,2.64,0,0,1,0-.34,2.05,2.05,0,0,0,0-.23,1.29,1.29,0,0,1-.7-0.23,1.35,1.35,0,0,1-.38-0.43,4.09,4.09,0,0,1-.23-0.49,0.79,0.79,0,0,0-.24-0.36,1,1,0,0,0-.6-0.23A2.23,2.23,0,0,1,227,84a1.2,1.2,0,0,1-.23-1.15,1.07,1.07,0,0,1-.41,0,1.24,1.24,0,0,1-.45,0l-0.41-.09a0.25,0.25,0,0,1-.23-0.13V81.54a3.11,3.11,0,0,1-1.26-.19,1.24,1.24,0,0,1-.47-1.09H223.3a5,5,0,0,1-.77-0.08,0.89,0.89,0,0,1-.66-0.38,2.37,2.37,0,0,0-.09-0.32,1.33,1.33,0,0,0-.13-0.32,1.8,1.8,0,0,0-.58-0.21,4.91,4.91,0,0,1-.62-0.15,1.32,1.32,0,0,1-.51-0.28,0.83,0.83,0,0,1-.21-0.64,1.23,1.23,0,0,1,.09-0.51,1.13,1.13,0,0,0,.09-0.47V76.83l-0.28,0-0.47-.08-0.47-.08-0.28,0A0.61,0.61,0,0,1,218,76a1.84,1.84,0,0,0-.15-0.75l-0.64-.6a0.86,0.86,0,0,1-.15-0.34A2.62,2.62,0,0,0,216.9,74a3.4,3.4,0,0,0-.68-0.49q-0.45-.26-0.9-0.58a4.12,4.12,0,0,1-.77-0.7,0.83,0.83,0,0,1-.21-0.79,5.51,5.51,0,0,1-1.45-.51,2.84,2.84,0,0,1-1.11-1,2.7,2.7,0,0,1-.09-0.43,1.93,1.93,0,0,0-.06-0.3,0.44,0.44,0,0,0-.08-0.17,1.55,1.55,0,0,0-.75-0.28,6.25,6.25,0,0,1-.92-0.19,2.29,2.29,0,0,1-.88-0.49,2.31,2.31,0,0,1-.64-1.15,0.41,0.41,0,0,1,0-.36,4.75,4.75,0,0,0,0-.51V65.88a1.25,1.25,0,0,0-.62-0.43l-0.83-.3a3.42,3.42,0,0,1-.85-0.49,2.54,2.54,0,0,1-.72-1,1.56,1.56,0,0,0,0-.21c0-.11-0.05-0.24-0.08-0.4s-0.05-.29-0.08-0.41a1.54,1.54,0,0,1,0-.26,1.34,1.34,0,0,0-.7-0.43q-0.4-.09-0.88-0.24a5.22,5.22,0,0,1-1.07-.49,4.36,4.36,0,0,1-1.22-1.2,0.64,0.64,0,0,0,0-.7,1.77,1.77,0,0,0-.51-0.43,3.2,3.2,0,0,1-.55-0.4,0.5,0.5,0,0,1,0-.62,1.22,1.22,0,0,1-.34-0.11l-0.55-.26-0.53-.26a1.21,1.21,0,0,1-.32-0.19,0.36,0.36,0,0,1-.13-0.11l-0.09-.11,0.45-.45H204a0.43,0.43,0,0,0-.3-0.11,1.32,1.32,0,0,1-.34-0.08q-0.26,0-.92-0.19L201,55.69l-1.43-.32-0.92-.23L198.26,55a0.39,0.39,0,0,1-.23-0.38V54.47l0.21-.21a0.36,0.36,0,0,1,.21-0.13h6.25l-8-2.67a0.23,0.23,0,0,1-.19-0.19,0.33,0.33,0,0,1,0-.15l0-.08a0.84,0.84,0,0,1,.32-0.15,1.44,1.44,0,0,1,.32-0.08,53.81,53.81,0,0,1,7.62,1.45,68.88,68.88,0,0,1,7.4,2.43h0.45l-15.48-8.4a0.44,0.44,0,0,1-.26-0.45q0.45,0,.88,0a3,3,0,0,1,.88.23q0.45,0.19,1.11.41t1.45,0.56l1.54,0.56,1.47,0.56,1.13,0.45,0.56,0.23,1.22,0.56L209,50.33l2.13,1,2.13,1,1.81,0.87,1.21,0.56h0.34l-16.23-11-0.3-.32a2.3,2.3,0,0,0-.34-0.32,1.85,1.85,0,0,1,0-.23h0.49l3,1.54,16.94,10.28h0.68a1.86,1.86,0,0,0-.32-0.32l-0.36-.28-0.68-.58-1.15-1-1.39-1.22-1.39-1.22-1.15-1-0.64-.58q-0.34-.26-1.13-1T211,44.94l-1.6-1.64q-0.75-.77-1-1.07-0.08-.11-0.41-0.51l-0.75-.9-0.81-1L205.76,39a1.72,1.72,0,0,1-.26-0.87h0.26l8.58,7.72a0.26,0.26,0,0,1,.23.23l11.15,9.45V55.33q-0.9-1.13-1.81-2.2T222.12,51q-0.89-1.09-1.71-2.22a21.29,21.29,0,0,1-1.54-2.45l-0.53-.9q-0.3-.53-0.56-1.09a10.47,10.47,0,0,1-.45-1.13,3.34,3.34,0,0,1-.19-1.05,0.83,0.83,0,0,1,0-.17,0.89,0.89,0,0,0,0-.17l0.41,0.45,9.86,13.33a18.14,18.14,0,0,0,3.28,3.39,46.39,46.39,0,0,0,3.94,2.82q2.05,1.32,4.14,2.56a43.88,43.88,0,0,1,3.9,2.6,1.34,1.34,0,0,0,.23.26l0.4,0.41q0.21,0.23.41,0.41a1.66,1.66,0,0,0,.28.23l0.6,0.3,0.6,0.3q0.23,0.15.64,0.38a1.56,1.56,0,0,1,.45.3,7.27,7.27,0,0,1,1.3,1.34q0.54,0.73,1,1.51t1,1.52a8.3,8.3,0,0,0,1.19,1.39,7.81,7.81,0,0,0,1.54-1.22,16.93,16.93,0,0,1,1.47-1.34,7.66,7.66,0,0,1,1.37-.9q0.73-.38,1.45-0.83a3.75,3.75,0,0,0,.9-0.81,2,2,0,0,1,1-.66l0.23-.06a1.17,1.17,0,0,0,.3-0.13,0.14,0.14,0,0,0,.09,0,0.53,0.53,0,0,0,0-.21V68.44a0.82,0.82,0,0,1,.45-0.62,4.11,4.11,0,0,1,.92-0.4,6,6,0,0,1,1-.21,6.5,6.5,0,0,1,.66-0.06,2.51,2.51,0,0,1,0-1.13,0.84,0.84,0,0,1,.4-0.51,1.27,1.27,0,0,1,.64-0.11l0.75,0a2.47,2.47,0,0,0,.7-0.06,0.78,0.78,0,0,0,.51-0.41,0.69,0.69,0,0,0,.13-0.53,1.64,1.64,0,0,1-.06-0.38,0.54,0.54,0,0,1,.13-0.4,1.32,1.32,0,0,1,.66-0.21l0.45,0,0.7-.06,0.7-.06,0.49,0a4.16,4.16,0,0,1,.45-1.68,1.55,1.55,0,0,1,1.51-.7,2.82,2.82,0,0,1,1.07.21l1,0.43,1,0.43a2.45,2.45,0,0,0,1,.21,2.64,2.64,0,0,0-.43-1.36,7.85,7.85,0,0,1-.62-1.21,0.48,0.48,0,0,1,.38-0.43l0.53,0a6.69,6.69,0,0,1,2.05.32,9.58,9.58,0,0,1,1.9.85A14.79,14.79,0,0,1,280,61.53q0.83,0.66,1.58,1.34V62.75a3.08,3.08,0,0,0-.17-1q-0.17-.49-0.38-1t-0.38-1a2.91,2.91,0,0,1-.17-1,0.55,0.55,0,0,1,.36-0.58,1.92,1.92,0,0,1,.66-0.13,3.45,3.45,0,0,1,1.64.43,10.5,10.5,0,0,1,1.49,1l1.22,1a1.6,1.6,0,0,0,.88.43,13.26,13.26,0,0,0-.11-1.75,13.25,13.25,0,0,1-.11-1.75V56.61a1,1,0,0,1,.41-0.3,1.19,1.19,0,0,1,.45-0.11,2.66,2.66,0,0,1,1.62.47,3.57,3.57,0,0,1,1,1.2,5.65,5.65,0,0,1,.57,1.6,11.62,11.62,0,0,1,.21,1.66l0.11,0.13a0.27,0.27,0,0,0,.11.09h0.23q0-.3.17-1t0.36-1.51q0.23-.83.55-1.73A11.74,11.74,0,0,1,293,55.5a4.59,4.59,0,0,1,.9-1.2,1.57,1.57,0,0,1,1.07-.47,0.75,0.75,0,0,1,.55.17,1,1,0,0,1,.17.7v0.87c0,0.2,0,.38,0,0.53s0,0.25,0,.3a12.91,12.91,0,0,1-.34,3,12.64,12.64,0,0,0-.34,2.88v0.41q0.49-1.05.94-2t0.9-1.77q0.45-.87.94-1.73l1.05-1.85,0.43-.64a4.87,4.87,0,0,1,.55-0.7,3.38,3.38,0,0,1,.66-0.55,1.42,1.42,0,0,1,.77-0.23,0.5,0.5,0,0,1,.53.28,1.66,1.66,0,0,1,.11.62,12.34,12.34,0,0,1-.83,4.41q-0.83,2.18-1.73,4.1v0.23L302.15,60l0.32-.11a1.47,1.47,0,0,1,.32-0.08,0.58,0.58,0,0,1,.56.28,1.31,1.31,0,0,1,.15.62,2.12,2.12,0,0,1-.06.55,1.89,1.89,0,0,1-.17.41c-0.08.14-.17,0.3-0.28,0.47s-0.25.4-.4,0.68a17.28,17.28,0,0,1-3.48,4.37,34.52,34.52,0,0,1-4.42,3.37q-2.37,1.52-4.88,2.88T285,76.38l-0.53.41-0.53.41a54.93,54.93,0,0,0-5.65,6.44,28.61,28.61,0,0,0-4,7.53v0.34a2.82,2.82,0,0,0,0,.4,0.63,0.63,0,0,0,.21.32l2.65,1.3a16.31,16.31,0,0,1,2.5,1.52,9.86,9.86,0,0,1,2,2,6.84,6.84,0,0,1,1.19,2.71,1.11,1.11,0,0,1,.06.34q0,0.26.06,0.55c0,0.19,0,.36.06,0.53s0,0.28,0,.36a8.9,8.9,0,0,0,.57,1.58,3.74,3.74,0,0,1,.34,1.62,2,2,0,0,1-.7,1.52,2.29,2.29,0,0,1-1.56.62h-0.34a0.89,0.89,0,0,0,.15-0.23,0.56,0.56,0,0,0,.08-0.23,0.64,0.64,0,0,0-.08-0.19,0.92,0.92,0,0,0-.15-0.23,17.3,17.3,0,0,0-1.68-1.62,4.92,4.92,0,0,0-1.43-.83,5.58,5.58,0,0,0-1.66-.3q-0.92,0-2.32,0a14.22,14.22,0,0,0-3.35.36,26.91,26.91,0,0,0-2.86.87q-1.39.51-2.82,1.11a27.17,27.17,0,0,1-3.16,1.09,14.36,14.36,0,0,1-2.84.55q-1.26.09-2.84,0.09A63,63,0,0,1,250,107a62.76,62.76,0,0,0-6.34-.32h-1.39Zm-22.1-30.27c-0.1,0-.15.08-0.15,0.23s0,0.23.15,0.23A0.23,0.23,0,0,0,220.14,76.38Zm74.7-13.52c-0.05,0-.08,0-0.08.11a0.1,0.1,0,0,0,.09.09c0.06,0,.09,0,0.09-0.09S294.92,62.84,294.84,62.86Z" transform="translate(-29.74 -38.16)"/></svg>