<?xml version="1.0" standalone="no"?>
<!DOCTYPE svg PUBLIC "-//W3C//DTD SVG 20010904//EN"
 "http://www.w3.org/TR/2001/REC-SVG-20010904/DTD/svg10.dtd">
<svg version="1.0" xmlns="http://www.w3.org/2000/svg"
 width="1000.000000pt" height="1000.000000pt" viewBox="0 0 1000.000000 1000.000000"
 preserveAspectRatio="xMidYMid meet">
<metadata>
Created by potrace 1.11, written by Peter Selinger 2001-2013
</metadata>
<g transform="translate(0.000000,1000.000000) scale(0.100000,-0.100000)"
fill="#000000" stroke="none">
<path d="M0 5000 l0 -5000 5000 0 5000 0 0 5000 0 5000 -5000 0 -5000 0 0
-5000z m4390 2799 c41 -35 84 -71 95 -79 18 -13 18 -12 -1 10 -30 35 -64 92
-64 109 0 8 35 -33 79 -90 59 -79 92 -112 135 -139 102 -63 152 -102 177 -140
l16 -24 32 24 c18 14 44 35 57 48 14 12 27 22 30 22 5 0 20 12 49 38 7 6 20
12 28 12 8 0 18 7 21 16 4 12 14 14 36 9 25 -5 29 -4 24 9 -9 22 23 21 62 -3
l31 -19 -5 24 c-5 28 13 32 46 8 21 -14 22 -14 22 11 0 34 29 31 47 -5 11 -22
13 -23 13 -5 0 23 26 65 41 65 5 0 9 -17 9 -37 l1 -38 25 43 c30 49 60 58 51
15 -3 -16 -9 -37 -13 -47 -5 -14 -4 -17 4 -12 24 15 32 -5 15 -36 -20 -34 -91
-90 -174 -137 -60 -33 -113 -89 -148 -158 l-21 -43 40 -25 c47 -29 65 -56 74
-107 8 -46 -4 -54 -46 -28 -43 26 -72 25 -165 -6 -70 -23 -89 -25 -181 -20
l-102 5 -15 -28 c-18 -37 -69 -59 -90 -41 -9 7 -13 20 -10 27 3 8 2 26 -1 39
-5 19 -11 23 -26 18 -14 -4 -18 -2 -14 5 9 14 -33 13 -91 -1 -57 -14 -78 -6
-62 24 21 39 32 44 103 51 65 6 136 35 108 45 -6 2 -12 10 -12 17 0 7 -7 16
-16 19 -11 4 -14 13 -11 27 6 21 -21 52 -80 94 -15 11 -53 45 -84 75 -31 30
-77 73 -102 95 -26 22 -46 46 -47 53 0 6 -4 12 -10 12 -5 0 -25 16 -44 35 -33
32 -34 35 -13 36 21 0 21 1 -3 11 -25 11 -25 11 10 17 l35 6 -45 14 c-25 8
-39 16 -32 18 11 4 39 -1 127 -23 11 -3 -13 14 -53 37 -40 22 -71 43 -68 46 2
3 43 -11 90 -30 47 -19 86 -33 86 -32 0 2 -29 22 -64 45 -69 44 -114 85 -67
60 14 -7 66 -37 115 -68 50 -30 96 -57 101 -60 6 -3 -25 27 -68 67 -43 41 -83
83 -89 95 -13 25 -16 27 102 -75z m167 -1154 c25 -17 25 -17 6 -36 -18 -18
-21 -18 -50 -4 -55 27 -103 -7 -103 -74 0 -50 75 -92 108 -59 9 9 18 9 38 -1
l27 -12 -20 -21 c-12 -12 -39 -22 -65 -25 -113 -13 -186 99 -128 195 37 60
125 77 187 37z m-1554 -72 c20 -49 43 -105 51 -125 l16 -38 -34 0 c-25 0 -35
5 -39 20 -4 17 -14 20 -61 20 -45 0 -57 -4 -66 -20 -7 -13 -21 -20 -40 -20
-17 0 -30 2 -30 4 0 2 9 23 19 47 10 24 33 79 51 122 31 74 33 77 65 77 32 0
34 -2 68 -87z m251 40 c46 -91 47 -91 85 -18 30 56 39 65 63 65 l28 0 0 -125
0 -125 -25 0 c-23 0 -24 3 -27 73 l-3 72 -36 -63 c-40 -69 -40 -69 -80 8 l-24
45 -5 -65 c-5 -62 -6 -65 -32 -68 l-28 -3 0 125 0 126 30 0 c25 0 33 -7 54
-47z m496 22 c0 -24 -2 -25 -70 -25 -63 0 -70 -2 -70 -20 0 -16 8 -19 63 -22
59 -3 62 -4 62 -28 0 -24 -3 -25 -62 -28 -59 -3 -63 -4 -63 -27 0 -24 2 -25
70 -25 68 0 70 -1 70 -25 l0 -26 -97 3 -98 3 -3 123 -3 122 101 0 100 0 0 -25z
m295 0 c32 -31 32 -75 0 -113 l-24 -29 24 -36 c31 -45 31 -47 -4 -47 -22 0
-35 9 -56 40 -16 22 -36 40 -46 40 -15 0 -19 -8 -19 -40 0 -38 -2 -40 -30 -40
l-30 0 0 125 0 125 80 0 c73 0 83 -3 105 -25z m195 -100 l0 -125 -30 0 -30 0
0 125 0 125 30 0 30 0 0 -125z m641 0 c27 -66 49 -121 49 -122 0 -2 -13 -3
-30 -3 -19 0 -33 7 -40 20 -9 16 -21 20 -66 20 -47 0 -57 -3 -61 -20 -4 -15
-14 -20 -39 -20 l-34 0 16 38 c8 20 32 77 51 125 l36 88 34 -3 c34 -3 35 -4
84 -123z m261 55 l53 -71 3 71 3 70 29 0 30 0 0 -125 0 -125 -27 0 c-23 1 -38
14 -83 76 l-55 76 -3 -76 -3 -76 -29 0 -30 0 0 125 0 125 30 0 c25 0 38 -11
82 -70z m502 23 c46 -91 47 -91 85 -18 30 56 39 65 63 65 l28 0 0 -125 0 -125
-25 0 c-23 0 -24 3 -27 73 l-3 72 -36 -63 c-40 -69 -40 -69 -80 8 l-24 45 -5
-65 c-5 -62 -6 -65 -32 -68 l-28 -3 0 125 0 126 30 0 c25 0 33 -7 54 -47z
m493 -63 c61 -149 60 -140 24 -140 -20 0 -34 7 -41 20 -9 16 -21 20 -65 20
-45 0 -55 -3 -60 -20 -4 -14 -15 -20 -36 -20 -16 0 -29 3 -29 7 0 4 21 61 47
126 l47 118 35 -3 c34 -3 35 -5 78 -108z m353 75 c39 -39 48 -90 25 -138 -23
-49 -82 -77 -163 -77 l-62 0 0 126 0 126 85 -3 c79 -4 87 -6 115 -34z m348 13
c-3 -21 -9 -23 -70 -26 -60 -3 -68 -5 -68 -22 0 -18 7 -20 60 -20 l60 0 0 -30
0 -30 -60 0 c-57 0 -60 -1 -60 -25 0 -24 2 -25 71 -25 67 0 70 -1 67 -22 -3
-22 -8 -23 -100 -26 l-98 -3 0 126 0 125 101 0 c98 0 100 0 97 -22z m-2901
-583 c67 -20 144 -89 179 -161 52 -106 14 -226 -111 -350 -130 -129 -301 -206
-514 -233 -40 -5 -78 -14 -85 -21 -7 -7 -11 -56 -11 -133 0 -110 2 -127 25
-171 33 -67 82 -103 153 -116 107 -20 232 23 329 113 43 40 46 46 73 162 57
247 161 506 262 656 90 133 206 219 297 219 85 0 177 -75 192 -157 12 -63 -38
-183 -127 -306 -27 -37 -49 -68 -49 -70 0 -1 19 -1 43 1 53 4 104 -22 135 -68
35 -52 26 -124 -34 -270 -37 -90 -47 -128 -48 -175 -1 -57 0 -60 24 -63 38 -4
107 47 163 120 47 61 157 269 157 296 0 7 -10 26 -22 42 -33 45 -37 129 -8
177 40 68 91 90 151 66 22 -8 51 -29 65 -46 21 -25 25 -38 20 -71 -13 -101
-18 -91 49 -90 33 0 83 4 111 9 48 7 53 6 85 -23 52 -47 48 -89 -25 -238 -43
-88 -59 -134 -63 -176 -5 -47 -3 -59 11 -64 29 -11 67 6 116 52 38 35 50 55
55 87 19 114 126 399 158 422 32 22 66 18 124 -15 97 -56 103 -90 43 -261 -48
-141 -69 -252 -50 -274 20 -24 55 -18 101 18 33 25 45 42 55 82 14 59 61 105
132 130 43 16 54 28 120 125 157 235 241 285 331 201 36 -34 38 -57 11 -108
-28 -53 -25 -98 16 -220 30 -90 35 -117 31 -165 l-5 -58 31 17 c18 9 57 42 88
75 58 60 89 71 121 46 42 -35 17 -101 -68 -177 -112 -100 -264 -154 -439 -155
-92 -1 -105 1 -166 30 -37 18 -84 48 -106 68 l-40 35 -29 -30 c-16 -16 -58
-44 -93 -62 -53 -26 -75 -31 -130 -31 -78 1 -148 28 -191 74 l-28 30 -29 -23
c-82 -66 -169 -93 -253 -77 -85 16 -138 47 -171 98 -50 80 -38 176 45 340 20
40 34 77 31 82 -4 6 -19 10 -34 10 -26 0 -32 -9 -75 -96 -90 -186 -196 -326
-295 -388 -142 -90 -333 -52 -392 79 -33 72 -19 173 46 319 43 97 28 129 -44
92 -96 -50 -173 -224 -187 -423 -5 -63 -12 -97 -22 -105 -34 -29 -167 -2 -212
43 l-28 29 -55 -33 c-270 -163 -631 -80 -750 170 -30 64 -32 74 -32 183 0 63
3 131 8 151 7 35 6 37 -24 43 -59 12 -176 75 -224 121 -121 118 -110 253 33
386 137 129 342 190 342 102 0 -22 -13 -38 -58 -73 -103 -81 -139 -198 -91
-297 18 -37 74 -92 83 -82 2 2 20 33 41 69 161 279 438 493 646 499 19 1 58
-6 86 -14z m2058 -159 c88 -37 86 -193 -4 -269 -118 -99 -259 -3 -210 144 18
53 58 99 103 120 50 22 67 23 111 5z m-3759 -1111 c39 -8 106 -25 148 -40 l76
-26 33 19 c55 34 135 55 185 49 55 -6 102 -50 102 -95 0 -67 -83 -132 -169
-132 -83 0 -124 -77 -135 -255 l-5 -91 99 4 c117 5 154 -6 169 -50 14 -39 -4
-83 -53 -126 -43 -38 -107 -72 -135 -72 -22 0 -51 35 -51 62 0 10 -2 18 -4 18
-2 0 -11 3 -19 6 -12 4 -18 -8 -27 -53 -70 -349 -238 -523 -504 -523 -140 0
-253 46 -346 139 -65 65 -92 117 -98 186 -3 42 1 57 26 96 38 58 133 123 223
150 72 22 106 20 133 -7 26 -26 19 -44 -43 -103 -33 -31 -66 -70 -75 -88 -23
-46 -21 -118 5 -154 70 -99 220 -70 307 60 35 53 88 179 106 254 l6 27 -70 0
c-81 0 -128 16 -158 55 -53 68 3 173 121 225 78 35 114 6 80 -65 -17 -36 -17
-37 2 -51 28 -21 54 -17 59 9 3 12 12 61 21 108 17 98 46 186 76 237 15 27 17
37 8 43 -23 14 -135 29 -218 29 -125 0 -181 -33 -181 -108 0 -40 12 -65 56
-115 37 -40 39 -49 24 -77 -15 -29 -59 -33 -128 -12 -260 82 -287 361 -42 453
106 40 233 44 396 14z m4032 -159 c107 -55 46 -278 -83 -302 -95 -18 -160 56
-141 159 9 50 59 121 97 140 42 20 91 22 127 3z m-1697 -297 c48 -34 62 -76
44 -135 -18 -59 -10 -67 60 -59 28 3 75 8 106 11 53 6 56 5 82 -26 26 -30 31
-50 28 -95 -1 -11 -28 -74 -59 -139 -42 -90 -57 -134 -60 -177 -3 -35 0 -59 7
-63 24 -15 76 8 121 53 40 41 49 57 65 121 20 84 89 289 111 332 35 67 92 72
161 13 l40 -34 80 40 c81 42 177 60 236 45 62 -15 126 -103 127 -174 0 -18
-20 -94 -46 -168 -34 -101 -44 -147 -42 -182 3 -42 6 -47 28 -50 29 -3 100 43
124 81 9 12 27 65 40 117 32 127 103 324 128 355 27 35 80 34 140 -4 55 -35
78 -66 78 -104 0 -16 -18 -83 -40 -149 -22 -66 -46 -154 -52 -194 -10 -65 -10
-77 4 -91 24 -23 62 -10 118 43 45 42 48 48 59 122 47 315 387 518 556 331 43
-48 55 -77 55 -133 0 -108 -77 -218 -178 -256 -31 -12 -83 -22 -114 -23 -32
-1 -58 -4 -58 -7 0 -18 44 -72 69 -85 131 -67 309 74 421 332 37 87 38 88 19
114 -51 72 -47 167 10 228 53 56 111 53 174 -10 38 -38 39 -41 33 -87 -14 -93
-17 -87 39 -86 28 1 77 5 111 9 55 7 63 5 88 -16 19 -17 29 -37 33 -66 5 -37
-2 -58 -57 -174 -52 -110 -63 -142 -64 -188 -1 -54 0 -56 27 -59 40 -5 133 42
299 149 180 117 263 161 360 193 233 78 418 -18 418 -218 0 -91 -68 -213 -158
-281 -53 -41 -85 -44 -107 -11 -15 23 -15 28 15 90 36 75 35 109 -6 147 -22
21 -35 24 -97 24 -97 -1 -185 -29 -397 -130 -209 -99 -288 -125 -380 -125 -83
0 -144 20 -189 63 -84 81 -81 187 11 371 22 43 36 82 31 87 -4 4 -19 10 -33
14 -23 6 -28 0 -69 -89 -150 -328 -308 -455 -555 -444 -106 4 -177 32 -235 92
l-34 35 -48 -43 c-64 -58 -111 -79 -187 -84 -83 -6 -143 12 -194 58 l-42 37
-47 -33 c-68 -50 -110 -64 -186 -64 -118 0 -209 59 -234 152 -14 53 -1 129 46
268 40 119 44 150 16 150 -33 0 -85 -44 -128 -108 -56 -83 -92 -198 -102 -328
-4 -58 -13 -110 -21 -119 -29 -34 -160 -12 -206 36 l-27 28 -33 -26 c-77 -58
-200 -71 -289 -29 -142 66 -158 189 -54 399 42 83 47 107 25 107 -8 0 -21 3
-29 6 -11 4 -28 -23 -65 -100 -100 -209 -216 -357 -319 -407 -58 -28 -155 -37
-220 -19 -27 8 -62 29 -86 52 -22 21 -42 38 -45 38 -2 0 -18 -12 -36 -27 -116
-98 -279 -96 -353 6 -15 20 -28 37 -29 39 0 1 -27 -9 -58 -24 -41 -19 -80 -27
-139 -31 -60 -4 -97 -12 -137 -32 -71 -34 -185 -41 -259 -16 -110 36 -191 146
-191 260 0 178 104 350 258 426 86 42 205 52 279 24 62 -24 121 -79 149 -140
42 -90 25 -254 -36 -354 -12 -18 -20 -35 -18 -37 8 -7 104 45 124 67 12 13 26
47 33 74 22 95 104 337 125 368 17 25 30 33 59 35 68 6 167 -69 167 -127 0
-14 -18 -78 -41 -141 -22 -63 -47 -137 -55 -165 -14 -51 -19 -137 -8 -148 13
-13 67 18 103 60 35 39 49 72 111 265 40 123 80 228 91 239 38 38 118 17 179
-46 44 -45 42 -77 -11 -231 -50 -142 -65 -268 -34 -280 27 -11 99 32 142 84
52 64 123 185 157 268 l28 72 -22 30 c-24 32 -37 112 -26 156 8 31 53 85 80
97 31 13 82 3 117 -22z m-1864 -1376 c43 -20 73 -66 73 -113 0 -47 -18 -80
-60 -108 -96 -66 -236 33 -200 142 26 79 111 115 187 79z m3120 -8 c25 -17 25
-17 5 -37 -19 -19 -21 -19 -46 -3 -22 15 -31 16 -56 5 -55 -23 -67 -84 -25
-125 27 -28 61 -32 92 -10 18 13 22 12 38 -5 10 -11 16 -22 14 -23 -72 -58
-165 -46 -209 26 -72 117 71 248 187 172z m296 11 c74 -31 104 -103 71 -171
-44 -94 -180 -101 -234 -12 -38 61 -17 138 48 175 43 25 71 27 115 8z m-3728
-21 c32 -31 32 -75 2 -111 -18 -21 -35 -28 -75 -32 l-52 -5 0 -38 c0 -37 -2
-39 -30 -39 l-30 0 0 125 0 125 80 0 c73 0 83 -3 105 -25z m545 -17 c6 -24 16
-59 22 -78 l11 -35 26 78 c24 75 26 77 57 77 32 0 34 -2 55 -70 13 -38 26 -70
30 -70 4 0 15 32 24 70 16 67 19 70 46 70 16 0 29 -5 29 -12 0 -6 -16 -63 -35
-125 -34 -109 -37 -113 -64 -113 -26 0 -29 5 -51 76 -13 41 -27 77 -31 80 -4
2 -19 -32 -34 -76 -25 -74 -29 -80 -54 -80 -27 0 -29 5 -64 119 -20 65 -37
121 -37 125 0 3 13 6 30 6 26 0 30 -5 40 -42z m600 17 c0 -24 -2 -25 -65 -25
-58 0 -65 -2 -65 -20 0 -18 7 -20 60 -20 l60 0 0 -30 0 -30 -60 0 c-57 0 -60
-1 -60 -25 0 -24 2 -25 65 -25 63 0 65 -1 65 -25 0 -25 0 -25 -95 -25 l-95 0
0 125 0 125 95 0 c95 0 95 0 95 -25z m294 4 c36 -28 36 -86 1 -119 l-24 -23
30 -43 30 -44 -33 0 c-27 0 -38 8 -61 40 -16 23 -36 40 -48 40 -16 0 -19 -7
-19 -41 0 -38 -1 -40 -27 -37 l-28 3 -3 123 -3 122 79 0 c65 0 84 -4 106 -21z
m336 -4 c0 -24 -2 -25 -70 -25 -63 0 -70 -2 -70 -20 0 -16 8 -19 63 -22 59 -3
62 -4 62 -28 0 -24 -3 -25 -62 -28 -59 -3 -63 -4 -63 -27 0 -24 2 -25 70 -25
68 0 70 -1 70 -25 l0 -26 -97 3 -98 3 -3 123 -3 122 101 0 100 0 0 -25z m287
5 c90 -54 77 -173 -24 -216 -18 -8 -60 -14 -93 -14 l-60 0 0 125 0 125 73 0
c54 0 80 -5 104 -20z m535 3 c22 -20 24 -66 3 -83 -14 -12 -13 -15 5 -35 26
-28 26 -67 -1 -91 -17 -16 -37 -19 -108 -19 l-86 0 -3 123 -3 122 87 0 c67 0
92 -4 106 -17z m212 -34 c31 -55 30 -56 67 14 17 32 24 37 54 37 l34 0 -49
-80 c-41 -65 -50 -88 -50 -125 0 -45 -1 -46 -27 -43 -26 3 -28 7 -31 52 -2 34
-13 64 -36 100 -61 96 -61 96 -24 96 29 0 36 -6 62 -51z m1306 26 c0 -24 -2
-25 -65 -25 -63 0 -65 -1 -65 -25 0 -24 3 -25 60 -25 57 0 60 -1 60 -25 0 -24
-3 -25 -59 -25 l-60 0 -3 -47 c-3 -44 -5 -48 -30 -51 l-28 -3 0 125 0 126 95
0 c95 0 95 0 95 -25z m308 3 c-3 -21 -9 -23 -70 -26 -65 -3 -68 -4 -68 -27 0
-24 3 -25 60 -25 57 0 60 -1 60 -25 0 -24 -3 -25 -60 -25 l-60 0 0 -50 c0 -49
-1 -50 -30 -50 l-30 0 0 125 0 125 101 0 c98 0 100 0 97 -22z m302 -3 c0 -24
-2 -25 -70 -25 -63 0 -70 -2 -70 -20 0 -16 8 -19 63 -22 59 -3 62 -4 62 -28 0
-24 -3 -25 -62 -28 -59 -3 -63 -4 -63 -27 0 -24 2 -25 70 -25 68 0 70 -1 70
-25 l0 -26 -97 3 -98 3 -3 123 -3 122 101 0 100 0 0 -25z m308 3 c-3 -21 -9
-23 -70 -26 -60 -3 -68 -5 -68 -22 0 -18 7 -20 60 -20 l60 0 0 -30 0 -30 -60
0 c-57 0 -60 -1 -60 -25 0 -24 2 -25 71 -25 67 0 70 -1 67 -22 -3 -22 -8 -23
-100 -26 l-98 -3 0 126 0 125 101 0 c98 0 100 0 97 -22z"/>
<path d="M2918 6544 c-17 -42 -12 -49 30 -42 18 3 18 5 2 42 l-16 40 -16 -40z"/>
<path d="M3920 6580 c0 -30 1 -31 43 -28 37 3 42 6 42 28 0 22 -5 25 -42 28
-42 3 -43 2 -43 -28z"/>
<path d="M4777 6540 l-15 -40 34 0 34 0 -15 37 c-9 20 -17 38 -19 40 -1 2 -10
-15 -19 -37z"/>
<path d="M6042 6547 c-16 -46 -16 -47 18 -47 17 0 30 2 30 4 0 7 -30 76 -33
76 -2 0 -8 -15 -15 -33z"/>
<path d="M6350 6540 l0 -70 40 0 c48 0 80 27 80 68 0 40 -37 72 -83 72 l-37 0
0 -70z"/>
<path d="M3791 5878 c-62 -30 -159 -125 -218 -210 -56 -81 -117 -197 -109
-205 3 -3 32 -1 63 6 199 39 400 234 391 379 l-3 47 -40 3 c-26 2 -56 -5 -84
-20z"/>
<path d="M4563 5845 c-30 -21 -103 -141 -159 -260 -69 -147 -71 -158 -29 -110
98 112 219 316 213 361 -3 23 -4 24 -25 9z"/>
<path d="M6268 5133 c-53 -80 -61 -104 -55 -165 3 -32 12 -70 21 -83 34 -52
97 -16 111 64 7 40 -30 221 -45 221 -4 0 -19 -17 -32 -37z"/>
<path d="M3019 4074 c-36 -23 -85 -98 -110 -169 -30 -82 -38 -234 -15 -270 24
-37 46 -32 46 9 0 43 38 90 84 106 30 10 34 16 49 78 24 100 31 202 15 232
-17 31 -35 34 -69 14z"/>
<path d="M6655 4070 c-36 -24 -59 -52 -89 -110 -50 -96 -41 -113 31 -61 67 48
133 175 98 187 -5 2 -23 -5 -40 -16z"/>
<path d="M2623 2910 c-55 -22 -65 -88 -21 -130 28 -26 58 -25 92 1 63 50 4
159 -71 129z"/>
<path d="M6045 2908 c-31 -16 -45 -39 -45 -70 0 -36 40 -78 75 -78 35 0 75 42
75 77 -1 32 -15 55 -47 71 -26 14 -32 14 -58 0z"/>
<path d="M2270 2880 c0 -30 1 -31 43 -28 37 3 42 6 42 28 0 22 -5 25 -42 28
-42 3 -43 2 -43 -28z"/>
<path d="M3710 2880 c0 -30 1 -31 43 -28 37 3 42 6 42 28 0 22 -5 25 -42 28
-42 3 -43 2 -43 -28z"/>
<path d="M4340 2840 l0 -70 40 0 c74 0 105 66 55 115 -16 17 -35 25 -60 25
l-35 0 0 -70z"/>
<path d="M4860 2885 c0 -21 5 -25 29 -25 42 0 61 10 61 31 0 16 -8 19 -45 19
-41 0 -45 -2 -45 -25z"/>
<path d="M4860 2790 c0 -27 3 -30 34 -30 47 0 66 9 66 30 0 21 -19 30 -66 30
-31 0 -34 -3 -34 -30z"/>
</g>
</svg>
